<?xml version="1.0" standalone="no"?>
<!DOCTYPE svg PUBLIC "-//W3C//DTD SVG 20010904//EN"
 "http://www.w3.org/TR/2001/REC-SVG-20010904/DTD/svg10.dtd">
<svg version="1.0" xmlns="http://www.w3.org/2000/svg"
 width="1989.000000pt" height="1000.000000pt" viewBox="0 0 1989.000000 1000.000000"
 preserveAspectRatio="xMidYMid meet">

<g transform="translate(0.000000,1000.000000) scale(0.100000,-0.100000)"
fill="#768BAF" stroke="#768BAF">
<path d="M4935 9854 c-386 -39 -605 -119 -779 -283 -99 -93 -215 -276 -271
-426 -49 -132 -60 -198 -60 -370 0 -158 0 -161 31 -225 49 -102 208 -260 335
-334 177 -102 394 -66 546 91 54 57 166 218 308 448 133 214 227 309 368 376
103 48 271 74 330 50 17 -6 16 -8 -5 -27 -13 -12 -50 -39 -83 -61 -76 -51
-207 -173 -236 -219 -21 -34 -21 -35 -3 -57 62 -73 304 -231 617 -405 223
-124 429 -220 587 -273 l115 -39 190 0 c178 0 193 2 240 24 67 31 151 109 212
198 68 99 73 110 84 181 5 34 14 81 20 105 9 33 9 46 0 55 -8 8 -73 12 -219
13 -245 1 -305 13 -471 95 -177 89 -321 199 -651 500 -226 206 -350 308 -474
392 -111 74 -270 151 -356 172 -64 15 -296 27 -375 19z"/>
<path d="M16372 9448 c-78 -209 -156 -484 -201 -708 -73 -359 -68 -526 19
-664 29 -46 31 -51 21 -98 -19 -87 -14 -151 15 -194 35 -53 80 -91 139 -118
90 -41 97 -41 124 7 88 153 451 622 675 872 45 49 132 143 194 208 61 64 112
122 112 127 0 18 -172 184 -255 246 -167 126 -367 241 -538 308 -85 34 -209
66 -253 66 -30 0 -34 -4 -52 -52z"/>
<path d="M11042 7685 c-87 -99 -284 -396 -423 -640 -224 -391 -518 -1037 -734
-1610 -227 -605 -392 -1232 -436 -1662 -13 -127 -6 -172 58 -358 78 -225 165
-353 306 -447 40 -26 42 -26 70 -10 77 45 240 243 512 622 477 665 892 1159
1362 1621 370 364 468 442 746 589 64 34 117 60 117 57 0 -3 -16 -43 -36 -89
-20 -45 -76 -184 -126 -308 -290 -723 -356 -1012 -318 -1401 32 -323 129 -512
325 -635 138 -85 270 -118 475 -118 143 -1 147 0 242 36 191 72 422 201 543
302 29 25 29 26 17 73 -7 26 -21 64 -31 83 -26 51 -64 51 -210 1 -99 -35 -131
-41 -197 -41 -89 0 -153 24 -186 70 -28 38 -48 153 -48 276 -1 457 237 1152
640 1874 193 344 344 547 464 622 93 58 91 53 55 117 -43 76 -144 205 -212
268 -123 116 -229 158 -397 156 -177 -1 -336 -59 -576 -208 -321 -201 -523
-371 -962 -813 -398 -400 -458 -465 -804 -878 -424 -505 -712 -834 -722 -824
-8 9 42 184 79 275 77 192 279 562 643 1180 130 220 272 461 315 535 44 74
116 208 160 298 l81 162 -17 53 c-23 73 -94 217 -152 307 -145 228 -324 401
-488 475 -91 40 -91 40 -135 -10z"/>
<path d="M4635 7673 c-222 -34 -413 -97 -650 -213 -485 -239 -928 -604 -1311
-1080 -283 -353 -518 -778 -665 -1208 -68 -199 -119 -563 -104 -747 37 -468
287 -887 599 -1004 101 -38 115 -37 212 8 238 112 705 431 947 647 142 127
168 148 163 133 -3 -8 -26 -86 -51 -174 -105 -364 -272 -839 -412 -1165 -99
-232 -289 -607 -408 -804 -423 -706 -947 -1188 -1482 -1366 -322 -106 -663
-121 -838 -36 -69 34 -199 124 -290 201 l-48 40 -35 -40 c-87 -100 -92 -136
-29 -221 108 -147 316 -288 578 -393 267 -107 655 -169 891 -143 426 48 878
250 1221 548 232 201 647 747 912 1199 337 575 611 1214 1247 2910 263 702
449 1166 671 1675 l55 125 -27 22 c-95 79 -409 175 -604 185 l-58 3 -58 -140
c-260 -628 -631 -1237 -1059 -1742 -126 -150 -399 -435 -536 -561 -322 -298
-628 -518 -770 -553 -72 -18 -79 -5 -73 136 13 254 93 513 278 890 494 1013
1504 2106 2145 2321 143 48 328 50 431 4 24 -10 43 -17 43 -16 0 24 -59 196
-88 254 -46 96 -151 206 -232 244 -106 50 -162 60 -355 63 -99 2 -193 1 -210
-2z"/>
<path d="M8220 7580 c-681 -127 -1450 -818 -1904 -1709 -228 -448 -348 -867
-376 -1311 -24 -380 42 -652 223 -923 206 -308 549 -514 970 -583 99 -16 109
-16 173 0 225 57 529 210 799 404 303 218 610 516 859 835 l69 89 -75 74 -74
75 -230 -229 c-376 -375 -602 -547 -906 -691 -180 -86 -321 -121 -487 -121
-116 0 -171 16 -231 68 -86 73 -140 185 -176 366 -17 88 -29 358 -20 447 l7
66 72 28 c246 95 701 309 932 438 132 73 357 224 476 318 215 170 439 416 561
619 177 293 283 644 333 1103 l16 148 -37 47 c-68 85 -232 238 -317 295 -227
153 -409 194 -657 147z m386 -847 c-20 -196 -90 -434 -177 -605 -242 -471
-757 -944 -1410 -1296 -53 -29 -99 -52 -102 -52 -7 0 12 68 65 230 183 562
531 1110 907 1430 100 84 266 192 376 245 106 50 273 106 339 114 4 1 5 -29 2
-66z"/>
<path d="M18830 7589 c-408 -70 -823 -311 -1215 -704 -78 -77 -175 -180 -216
-230 -587 -703 -924 -1569 -896 -2304 14 -373 132 -647 386 -902 121 -121 221
-192 365 -259 150 -71 288 -112 468 -140 89 -15 124 -8 288 50 382 137 769
399 1146 775 191 190 434 475 434 507 0 6 -32 42 -71 80 l-72 69 -261 -258
c-273 -270 -385 -367 -569 -490 -311 -208 -567 -300 -810 -291 -130 5 -171 21
-243 94 -115 119 -167 335 -162 669 l3 180 160 66 c745 307 1217 591 1565 939
248 248 411 517 523 867 64 198 118 484 133 701 l6 97 -112 117 c-172 181
-332 290 -510 349 -75 24 -251 34 -340 18z m344 -826 c-36 -275 -83 -443 -178
-632 -213 -423 -672 -867 -1243 -1204 -126 -74 -273 -150 -273 -141 0 15 63
219 94 305 59 162 114 289 200 454 231 445 514 789 831 1009 79 55 243 144
325 176 46 18 219 68 242 70 4 0 5 -17 2 -37z"/>
<path d="M15565 7078 c-105 -62 -247 -209 -341 -353 -156 -238 -305 -566 -383
-844 -107 -376 -317 -1435 -352 -1768 -25 -244 21 -402 172 -588 112 -138 336
-281 460 -293 45 -4 47 -3 58 28 6 18 11 83 11 144 0 290 67 552 302 1176 55
146 136 364 180 485 222 611 431 1010 708 1353 l91 114 -56 74 c-117 152 -284
287 -490 395 -97 51 -259 119 -283 119 -4 0 -38 -19 -77 -42z"/>
</g>
</svg>
